<svg viewBox="0 0 152 224" fill="none" xmlns="http://www.w3.org/2000/svg">
    <path fill-rule="evenodd" clip-rule="evenodd"
        d="M0 0H8V8H0V0ZM24 0H32V8H24V0ZM56 0H48V8H56V0ZM72 0H80V8H72V0ZM104 0H96V8H104V0ZM120 0H128V8H120V0ZM152 0H144V8H152V0Z" />
    <path fill-rule="evenodd" clip-rule="evenodd"
        d="M0 24H8V32H0V24ZM24 24H32V32H24V24ZM56 24H48V32H56V24ZM72 24H80V32H72V24ZM104 24H96V32H104V24ZM120 24H128V32H120V24ZM152 24H144V32H152V24Z" />
    <path fill-rule="evenodd" clip-rule="evenodd"
        d="M0 48H8V56H0V48ZM24 48H32V56H24V48ZM56 48H48V56H56V48ZM72 48H80V56H72V48ZM104 48H96V56H104V48ZM120 48H128V56H120V48ZM152 48H144V56H152V48Z" />
    <path fill-rule="evenodd" clip-rule="evenodd"
        d="M0 72H8V80H0V72ZM24 72H32V80H24V72ZM56 72H48V80H56V72ZM72 72H80V80H72V72ZM104 72H96V80H104V72ZM120 72H128V80H120V72ZM152 72H144V80H152V72Z" />
    <path fill-rule="evenodd" clip-rule="evenodd"
        d="M0 96H8V104H0V96ZM24 96H32V104H24V96ZM56 96H48V104H56V96ZM72 96H80V104H72V96ZM104 96H96V104H104V96ZM120 96H128V104H120V96ZM152 96H144V104H152V96Z" />
    <path fill-rule="evenodd" clip-rule="evenodd"
        d="M0 120H8V128H0V120ZM24 120H32V128H24V120ZM56 120H48V128H56V120ZM72 120H80V128H72V120ZM104 120H96V128H104V120ZM120 120H128V128H120V120ZM152 120H144V128H152V120Z" />
    <path fill-rule="evenodd" clip-rule="evenodd"
        d="M0 144H8V152H0V144ZM24 144H32V152H24V144ZM56 144H48V152H56V144ZM72 144H80V152H72V144ZM104 144H96V152H104V144ZM120 144H128V152H120V144ZM152 144H144V152H152V144Z" />
    <path fill-rule="evenodd" clip-rule="evenodd"
        d="M0 168H8V176H0V168ZM24 168H32V176H24V168ZM56 168H48V176H56V168ZM72 168H80V176H72V168ZM104 168H96V176H104V168ZM120 168H128V176H120V168ZM152 168H144V176H152V168Z" />
    <path fill-rule="evenodd" clip-rule="evenodd"
        d="M0 192H8V200H0V192ZM24 192H32V200H24V192ZM56 192H48V200H56V192ZM72 192H80V200H72V192ZM104 192H96V200H104V192ZM120 192H128V200H120V192ZM152 192H144V200H152V192Z" />
    <path fill-rule="evenodd" clip-rule="evenodd"
        d="M0 216H8V224H0V216ZM24 216H32V224H24V216ZM56 216H48V224H56V216ZM72 216H80V224H72V216ZM104 216H96V224H104V216ZM120 216H128V224H120V216ZM152 216H144V224H152V216Z" />
</svg>